<svg xmlns="http://www.w3.org/2000/svg" xmlns:xlink="http://www.w3.org/1999/xlink"><symbol id="check-hover" viewBox="0 0 42 24"><g fill="none">
<rect x="1" y="1" width="40" height="22" rx="11" fill="#7859CF" fill-opacity="0.25" stroke="#9070EC" stroke-width="2"/>
<circle cx="12" cy="12" r="10" fill="white"/>
</g></symbol><symbol id="check-off-disabled" viewBox="0 0 42 24"><g fill="none">
<rect width="42" height="24" rx="12" fill="#E2E2E2"/>
<circle cx="12" cy="12" r="10" fill="#F8F8F8"/>
</g></symbol><symbol id="check-off" viewBox="0 0 42 24"><g fill="none">
<rect width="42" height="24" rx="12" fill="#BDBDBD"/>
<circle cx="12" cy="12" r="10" fill="white"/>
</g></symbol><symbol id="check-on-disabled" viewBox="0 0 42 24"><g fill="none">
<rect width="42" height="24" rx="12" fill="#E2E2E2"/>
<circle cx="30" cy="12" r="10" fill="#BDBDBD"/>
</g></symbol><symbol id="check-on" viewBox="0 0 42 24"><g fill="none">
<rect width="42" height="24" rx="12" fill="#7859CF"/>
<circle cx="30" cy="12" r="10" fill="white"/>
</g></symbol><symbol id="icon-arrow-left" viewBox="0 0 20 20"><g fill="none">
<path fill-rule="evenodd" clip-rule="evenodd" d="M13.7166 0L15 1.32082L6.56677 10L15 18.6792L13.7166 20L4 10L13.7166 0Z" fill="#7859CF"/>
</g></symbol><symbol id="icon-buy" viewBox="0 0 20 16"><g fill="none">
<path fill-rule="evenodd" clip-rule="evenodd" d="M13.6738 13.5219L13.6769 13.5H15.0238L14.9937 13.7105C14.8061 15.0242 13.6809 16 12.3539 16H3.64612C2.31905 16 1.19393 15.0242 1.00626 13.7105L0.190476 8L0 6.66667H1.34687H4.55556L4.33218 3.98618C4.15336 1.84036 5.84674 0 8 0C9.81376 0 11.3012 1.30578 11.6183 3H10.2473C9.95698 2.04197 9.06703 1.33333 8 1.33333C6.62679 1.33333 5.54687 2.50699 5.66091 3.87546L5.89351 6.66667H9.5V8H6.05787L6.28009 10.6667H9.71991L9.7338 10.5H11.0718L11.0579 10.6667H12.5V12H10.9468L10.7245 14.6667H12.3539C13.0174 14.6667 13.58 14.1788 13.6738 13.5219ZM4.71991 8H4.66667H1.53735L1.9183 10.6667H4.94213L4.71991 8ZM6.61342 14.6667L6.3912 12H9.6088L9.38658 14.6667H6.61342ZM5.05324 12L5.27547 14.6667H3.64612C2.98259 14.6667 2.42003 14.1788 2.32619 13.5219L2.10877 12H5.05324ZM15.8 10V7.2H13V5.8H15.8V3H17.2V5.8H20V7.2H17.2V10H15.8Z" fill="white"/>
</g></symbol><symbol id="icon-cart" viewBox="0 0 16 16"><g fill="none">
<path fill-rule="evenodd" clip-rule="evenodd" d="M5.66091 3.87546L5.89351 6.66667H10.1065L10.3391 3.87546C10.4531 2.50699 9.37321 1.33333 8 1.33333C6.62679 1.33333 5.54687 2.50699 5.66091 3.87546ZM11.4444 6.66667L11.6678 3.98618C11.8466 1.84036 10.1533 0 8 0C5.84674 0 4.15336 1.84036 4.33218 3.98618L4.55556 6.66667H1.34687H0L0.190476 8L1.00626 13.7105C1.19393 15.0242 2.31905 16 3.64612 16H12.3539C13.6809 16 14.8061 15.0242 14.9937 13.7105L15.8095 8L16 6.66667H14.6531H11.4444ZM11.3333 8H11.2801L11.0579 10.6667H14.0817L14.4627 8H11.3333ZM9.94213 8H6.05787L6.28009 10.6667H9.71991L9.94213 8ZM4.71991 8H4.66667H1.53735L1.9183 10.6667H4.94213L4.71991 8ZM6.61342 14.6667L6.3912 12H9.6088L9.38658 14.6667H6.61342ZM10.9468 12L10.7245 14.6667H12.3539C13.0174 14.6667 13.58 14.1788 13.6738 13.5219L13.8912 12H10.9468ZM5.05324 12L5.27547 14.6667H3.64612C2.98259 14.6667 2.42003 14.1788 2.32619 13.5219L2.10877 12H5.05324Z" fill="#333333"/>
</g></symbol><symbol id="icon-cheerfulness" viewBox="0 0 42 56"><g fill="none">
<path fill-rule="evenodd" clip-rule="evenodd" d="M19.9731 35.2L38.1345 4L4 30.6753L19.9731 35.2ZM26.0271 24.8L7.86572 56L42.0002 29.3247L26.0271 24.8Z" fill="#F0EBFF"/>
<path fill-rule="evenodd" clip-rule="evenodd" d="M34.1345 0L0 26.6753L15.9731 31.2L3.86555 52.0001L38 25.3248L22.0269 20.8001L34.1345 0ZM35.8319 25.75L20.5143 21.4109L30.6566 3.98704L2.1681 26.2501L17.4858 30.5892L7.34345 48.013L35.8319 25.75Z" fill="#7859CF"/>
</g></symbol><symbol id="icon-comfort" viewBox="0 0 52 56"><g fill="none">
<path d="M4 4H52L48 48L28 56L8 48L4 4Z" fill="#F0EBFF"/>
<path fill-rule="evenodd" clip-rule="evenodd" d="M1.00412 0H0L0.0909091 1L4 44L24 52L44 44L47.9091 1L48 0H46.9959H1.00412ZM1.09503 1L1.45867 5H5H5.50198H6.00396H6.9H10.7H14.5H18.3H22.1H25.9H29.7H33.5H37.3H41.1H41.996H42.498H43H46.5413L46.905 1H1.09503ZM41.9069 6H41.1H37.3H33.5H29.7H25.9H22.1H18.3H14.5H10.7H6.9H6.09307L6.19397 7.1324L5.69594 7.17678L5.19792 7.22115L5.08911 6H1.54958L4.94041 43.2991L24 50.923L43.0596 43.2991L46.4504 6H42.9109L42.8021 7.22115L42.3041 7.17678L41.806 7.1324L41.9069 6ZM6.09178 11.6191L5.59375 11.6635L5.98958 16.1058L6.48761 16.0614L6.98564 16.017L6.5898 11.5747L6.09178 11.6191ZM6.88344 20.5037L6.38542 20.5481L6.78125 24.9904L7.27928 24.946L7.7773 24.9016L7.38147 20.4593L6.88344 20.5037ZM7.67511 29.3883L7.17708 29.4327L7.57292 33.875L8.07094 33.8306L8.56897 33.7862L8.17314 29.3439L7.67511 29.3883ZM8.46678 38.2729L7.96875 38.3173L8.16667 40.5385L10.1458 41.3462L10.3348 40.8832L10.5237 40.4203L9.10864 39.8428L8.9648 38.2286L8.46678 38.2729ZM14.2931 42.4986L14.1042 42.9615L18.0625 44.5769L18.2514 44.114L18.4403 43.6511L14.482 42.0357L14.2931 42.4986ZM22.2098 45.7294L22.0208 46.1923L24 47L25.9792 46.1923L25.7902 45.7294L25.6013 45.2664L24 45.9199L22.3987 45.2664L22.2098 45.7294ZM29.7486 44.114L29.9375 44.5769L33.8958 42.9615L33.7069 42.4986L33.518 42.0357L29.5597 43.6511L29.7486 44.114ZM37.6652 40.8832L37.8542 41.3462L39.8333 40.5385L40.0313 38.3173L39.5332 38.2729L39.0352 38.2286L38.8914 39.8428L37.4763 40.4203L37.6652 40.8832ZM39.9291 33.8306L40.4271 33.875L40.8229 29.4327L40.3249 29.3883L39.8269 29.3439L39.431 33.7862L39.9291 33.8306ZM40.7207 24.946L41.2188 24.9904L41.6146 20.5481L41.1166 20.5037L40.6185 20.4593L40.2227 24.9016L40.7207 24.946ZM41.5124 16.0614L42.0104 16.1058L42.4062 11.6635L41.9082 11.6191L41.4102 11.5747L41.0144 16.017L41.5124 16.0614Z" fill="#7859CF"/>
</g></symbol><symbol id="icon-eco" viewBox="0 0 52 56"><g fill="none">
<path fill-rule="evenodd" clip-rule="evenodd" d="M41.7068 22.1225C42.4764 15.5574 43.2041 9.34979 48.9997 4C22.5072 3.99988 14.8468 12.128 10.9998 17.9999C2.45825 31.0373 10.0851 43.6704 11.7106 46.0864C10.7615 47.9699 9.8453 49.8228 8.96853 51.596C8.28756 52.9732 7.63037 54.3023 7 55.5603L7.88103 55.9999C8.51647 54.7318 9.17882 53.3919 9.86491 52.0041C10.713 50.2884 11.5975 48.4993 12.5122 46.6817C15.1065 47.5486 26.9646 50.8651 34.5 41.9999C40.1568 35.3449 40.9519 28.5617 41.7068 22.1225Z" fill="#F0EBFF"/>
<path fill-rule="evenodd" clip-rule="evenodd" d="M8.23221 41.055C12.1899 33.2582 16.686 25.0948 21.2668 19.9999L22 20.6562C17.4314 25.7376 12.9304 33.9532 8.96782 41.779C9.34578 41.9019 9.88834 42.0652 10.5614 42.2326C11.9567 42.5795 13.8987 42.9402 16.0898 43.0003C20.4744 43.1204 25.753 42.0406 29.7381 37.3522C35.1982 30.9285 35.9631 24.4063 36.7206 17.9463L36.7357 17.8172C37.4173 12.0063 38.12 6.18297 42.6108 1.02289C30.8214 1.2525 23.1299 3.18456 17.9438 5.69784C12.4434 8.36348 9.69156 11.7161 7.83626 14.5479C3.2831 21.4976 3.51823 28.3097 4.90266 33.4262C5.59642 35.9902 6.57807 38.1203 7.38638 39.6085C7.70612 40.1972 7.99777 40.6837 8.23221 41.055ZM7.7106 42.0864C6.08506 39.6704 -1.54175 27.0373 6.9998 13.9999C10.7758 8.23634 18.2259 0.299055 43.5524 0.00822987C44.0285 0.00276494 44.5109 -2.58931e-06 44.9997 1.81779e-09C44.6406 0.331444 44.301 0.666183 43.9796 1.0041C39.1138 6.12034 38.4287 11.9641 37.7068 18.1225C36.952 24.5617 36.1568 31.3449 30.5 37.9999C22.9646 46.8651 11.1065 43.5486 8.51217 42.6817C7.59746 44.4993 6.71305 46.2884 5.86491 48.0041C5.17882 49.3919 4.51647 50.7318 3.88103 51.9999L3 51.5603C3.63037 50.3023 4.28756 48.9732 4.96853 47.596C5.8453 45.8228 6.76149 43.9699 7.7106 42.0864Z" fill="#7859CF"/>
</g></symbol><symbol id="icon-login" viewBox="0 0 16 16"><g fill="none">
<path fill-rule="evenodd" clip-rule="evenodd" d="M10.6667 4C10.6667 5.47276 9.47276 6.66667 8 6.66667C6.52724 6.66667 5.33333 5.47276 5.33333 4C5.33333 2.52724 6.52724 1.33333 8 1.33333C9.47276 1.33333 10.6667 2.52724 10.6667 4ZM12 4C12 6.20914 10.2091 8 8 8C5.79086 8 4 6.20914 4 4C4 1.79086 5.79086 0 8 0C10.2091 0 12 1.79086 12 4ZM3.19673 12.3102C4.43611 11.2774 6.1613 10.6667 8 10.6667C9.8387 10.6667 11.5639 11.2774 12.8033 12.3102C14.0354 13.337 14.6667 14.6719 14.6667 16H16C16 14.2321 15.1573 12.5363 13.6569 11.286C12.1566 10.0357 10.1218 9.33333 8 9.33333C5.87821 9.33333 3.8434 10.0357 2.34315 11.286C0.842686 12.5363 0 14.2321 0 16L1.33333 16C1.33333 14.6719 1.96465 13.337 3.19673 12.3102Z" fill="#333333"/>
</g></symbol><symbol id="icon-phone" viewBox="0 0 13 16"><g fill="none">
<path fill-rule="evenodd" clip-rule="evenodd" d="M1.47771 1.49035C0.407036 2.09016 -0.173009 3.23613 0.0457595 4.31941L0.404071 6.09367C1.3302 9.21701 2.90461 11.863 5.22921 14.2029L6.63362 15.3911C7.49109 16.1166 8.80393 16.2022 9.8746 15.6024L12.1043 14.3533C12.9766 13.8646 13.2662 12.8186 12.7298 12.0941L10.7951 9.48096C10.2793 8.7842 9.20705 8.66949 8.42947 9.22787L7.05383 10.2157C5.82614 9.33632 5.0461 8.02537 4.87507 6.55403L6.44457 5.89198C7.33172 5.51776 7.76545 4.55939 7.4015 3.77755L6.03652 0.845267C5.65806 0.0322596 4.57968 -0.247395 3.7074 0.241264L1.47771 1.49035ZM1.2824 4.01819C1.16306 3.42725 1.47948 2.80211 2.06354 2.47492L4.29323 1.22582C4.5113 1.10366 4.78089 1.17357 4.87551 1.37683L6.24049 4.30911C6.33147 4.50457 6.22304 4.74416 6.00126 4.83771L3.57088 5.8629L3.58692 6.27871C3.66894 8.40504 4.79869 10.3037 6.65548 11.4358L7.01858 11.6572L9.14878 10.1275C9.34317 9.98792 9.61123 10.0166 9.74019 10.1908L11.6748 12.8039C11.8089 12.9851 11.7365 13.2466 11.5185 13.3687L9.28877 14.6178C8.70471 14.945 7.98854 14.8983 7.52079 14.5026L6.11637 13.3144C4.3893 11.6193 2.29008 8.09128 1.64071 5.79245L1.2824 4.01819Z" fill="#7859CF"/>
</g></symbol><symbol id="icon-pin" viewBox="0 0 13 16"><g fill="none">
<path fill-rule="evenodd" clip-rule="evenodd" d="M11.8 6.5C11.8 8.83027 10.4332 10.9174 8.8884 12.5109C8.13169 13.2915 7.37106 13.9131 6.79878 14.3393C6.6918 14.419 6.59177 14.4916 6.5 14.5569C6.40823 14.4916 6.3082 14.419 6.20122 14.3393C5.62894 13.9131 4.86831 13.2915 4.1116 12.5109C2.56678 10.9174 1.2 8.83027 1.2 6.5C1.2 3.57289 3.57289 1.2 6.5 1.2C9.42711 1.2 11.8 3.57289 11.8 6.5ZM13 6.5C13 12.0899 6.5 16 6.5 16C6.5 16 0 12.0899 0 6.5C0 2.91015 2.91015 0 6.5 0C10.0899 0 13 2.91015 13 6.5ZM8.8 6.5C8.8 7.77026 7.77026 8.8 6.5 8.8C5.22974 8.8 4.2 7.77026 4.2 6.5C4.2 5.22974 5.22974 4.2 6.5 4.2C7.77026 4.2 8.8 5.22974 8.8 6.5ZM10 6.5C10 8.433 8.433 10 6.5 10C4.567 10 3 8.433 3 6.5C3 4.567 4.567 3 6.5 3C8.433 3 10 4.567 10 6.5Z" fill="#7859CF"/>
</g></symbol><symbol id="icon-speed" viewBox="0 0 52 56"><g fill="none">
<path fill-rule="evenodd" clip-rule="evenodd" d="M24 4H32V7H29V10.0213C32.8152 10.1846 36.3896 11.2772 39.5027 13.0786C41.354 11.1476 45.7551 13.2459 44.2635 16.7365C44.2309 16.704 44.1983 16.6716 44.1656 16.6393C48.3853 20.8089 51 26.5991 51 33C51 45.7025 40.7025 56 28 56C15.2975 56 5 45.7025 5 33C5 26.3297 7.83949 20.3226 12.3757 16.1215C12.1588 16.3222 11.9457 16.5272 11.7365 16.7364C9.70719 13.7075 14.3199 10.5817 16.4975 13.0784C19.6105 11.2771 23.1849 10.1846 27 10.0213V7H24V4Z" fill="#F0EBFF"/>
<path fill-rule="evenodd" clip-rule="evenodd" d="M27 1H21V2L23 2L25 2H27V1ZM25 3H27H28V2V1V0H27H21H20V1V2V3H21H23V6.02135C19.5463 6.1691 16.2898 7.07848 13.3944 8.58582L13.2544 8.42496C11.7163 6.6569 9.39521 6.98255 7.95484 8.02395C7.21517 8.55874 6.60253 9.33813 6.35204 10.2775C6.09438 11.2438 6.24251 12.3031 6.90574 13.293L7.02865 13.4765C3.28444 17.5676 1 23.017 1 29C1 41.7025 11.2975 52 24 52C36.7025 52 47 41.7025 47 29C47 23.0401 44.7331 17.6096 41.0145 13.5238L41.183 13.1295C41.6454 12.0474 41.6748 11.0021 41.3518 10.087C41.0339 9.1862 40.4018 8.48773 39.6665 8.02632C38.2591 7.14319 36.1326 6.97177 34.777 8.39054L34.5955 8.58053C31.7025 7.07636 28.4497 6.16892 25 6.02135V3ZM24 7C20.1406 7 16.5133 7.99379 13.36 9.73944L13 9.94732C11.5856 10.7639 10.2674 11.735 9.06924 12.8421C4.72198 16.8612 2 22.6127 2 29C2 41.1503 11.8497 51 24 51C36.1503 51 46 41.1503 46 29C46 22.9249 43.5376 17.4248 39.5563 13.4436C39.4319 13.3192 39.306 13.1963 39.1787 13.0749C37.9153 11.8707 36.5126 10.8207 35 9.94741L34.6357 9.7371C31.4835 7.99291 27.8577 7 24 7ZM12.4975 9.07845C11.0109 9.93867 9.62944 10.9605 8.37728 12.12C8.15986 12.3212 7.94622 12.5267 7.73652 12.7364C7.51811 12.4104 7.37664 12.0833 7.30079 11.7622C6.75443 9.44925 9.61277 7.44804 11.6466 8.42332C11.9539 8.57068 12.2424 8.78599 12.4975 9.07845ZM35.5027 9.07856C37.0672 9.98386 38.5152 11.0682 39.8186 12.3035C39.9688 12.4458 40.1171 12.5902 40.2635 12.7365C40.43 12.3468 40.523 11.9745 40.5544 11.6232C40.7632 9.28719 38.2441 7.88062 36.4507 8.48214C36.0978 8.60048 35.7731 8.79655 35.5027 9.07856ZM24 31C25.1046 31 26 30.1046 26 29C26 28.2049 25.536 27.5182 24.8641 27.1958L23.9501 27.0006C22.8686 27.0271 22 27.9121 22 29C22 30.1046 22.8954 31 24 31ZM23.3638 26.0676L22.0176 21.1316L21.9778 20.9855L22.0257 20.8419L23.5257 16.3419L24 14.9189L24.4743 16.3419L25.9743 20.8419L26.0222 20.9855L25.9824 21.1316L24.6362 26.0676C24.7657 26.0956 24.8921 26.1319 25.0148 26.176L32.5642 12.7549L33.4358 13.2451L25.8861 26.6669C26.5656 27.2169 27 28.0577 27 29C27 30.6569 25.6569 32 24 32C22.3431 32 21 30.6569 21 29C21 27.5614 22.0125 26.3594 23.3638 26.0676ZM23.0222 21.0145L24 24.5997L24.9778 21.0145L24 18.0811L23.0222 21.0145Z" fill="#7859CF"/>
</g></symbol><symbol id="logo-html" viewBox="0 0 12 16"><g fill="none">
<path d="M11.2151 5.75392L5.97184 2.49957V2.49875L5.97121 2.49916L5.97058 2.49875V2.49957L0.784854 5.75013V1.40658L6.00008 0.830884L11.2151 1.40658V5.75392ZM11.211 6.32987L9.12557 7.62344L5.98451 5.65607L5.97935 6.22863L8.66414 7.9096L8.20107 8.19683L5.98451 6.80853L5.97935 7.3811L7.72892 8.47648L7.31607 8.76717L7.30606 8.77351L5.98451 7.95383L5.97935 8.52631L6.8465 9.06404L5.96315 9.62244L0.796198 6.3886L5.97058 3.1139V3.11448L11.211 6.32987ZM11.2151 11.7713L6 15.0384L0.784854 11.7713V7.02542L5.97763 10.2796L5.98631 10.8693L2.42396 8.63702L2.41871 9.20959L5.99523 11.4728L6.00407 12.0782L2.42873 9.83883L2.42356 10.4113L6 12.6745L9.60624 10.4026V7.95712L11.2151 6.94552V11.7713ZM5.99984 -3.17891e-07L0 0.662267V12.2411L6 16L12 12.2411V0.662267L5.99984 -3.17891e-07Z" fill="#BDBDBD"/>
</g></symbol><symbol id="logo-ok" viewBox="0 0 20 20"><g fill="none">
<path fill-rule="evenodd" clip-rule="evenodd" d="M1.4 1.4C3.33786e-06 2.812 3.35195e-06 5.074 3.35195e-06 9.6V10.4L1.66545e-06 10.5136C-9.77702e-05 14.97 -0.00014782 17.2117 1.4 18.6C2.812 20 5.074 20 9.6 20H10.4H10.5131C14.9698 20.0001 17.2117 20.0001 18.6 18.6C20 17.188 20 14.926 20 10.4V9.6V9.48685C20.0001 5.03015 20.0001 2.7883 18.6 1.4C17.188 3.33786e-06 14.926 3.35195e-06 10.4 3.35195e-06H9.6L9.48639 1.66545e-06C5.03 -9.77702e-05 2.78825 -0.00014782 1.4 1.4ZM10.0194 10.1972C11.6876 10.1972 13.0477 8.83717 13.0477 7.16889C13.0477 5.50061 11.6876 4.14061 10.0194 4.14061C8.33296 4.14061 6.97295 5.50061 6.97295 7.16889C6.97295 8.83717 8.33296 10.1972 10.0194 10.1972ZM10.0194 5.91768C10.7084 5.91768 11.2706 6.47982 11.2706 7.16889C11.2706 7.85796 10.7084 8.4201 10.0194 8.4201C9.3303 8.4201 8.76816 7.85796 8.76816 7.16889C8.75003 6.47982 9.31216 5.91768 10.0194 5.91768ZM11.2343 12.6815C11.8509 12.5364 12.4493 12.3007 12.9933 11.9561C13.4103 11.7023 13.5372 11.1401 13.2653 10.7231C13.0114 10.306 12.4493 10.1791 12.0322 10.4511C10.7991 11.2308 9.18524 11.2308 7.95216 10.4511C7.53509 10.1972 6.99109 10.306 6.71909 10.7231C6.48336 11.1401 6.61029 11.6841 7.02736 11.938C7.57137 12.2825 8.16977 12.5183 8.7863 12.6634L7.0999 14.3498C6.75536 14.6943 6.75536 15.2565 7.0999 15.601C7.28123 15.7823 7.49883 15.8548 7.73456 15.8548C7.9703 15.8548 8.1879 15.7641 8.36923 15.601L10.0375 13.9327L11.7058 15.601C12.0503 15.9455 12.6124 15.9455 12.957 15.601C13.3015 15.2565 13.3015 14.6943 12.957 14.3498L11.2343 12.6815Z" fill="#BDBDBD"/>
</g></symbol><symbol id="logo-pinterest" viewBox="0 0 22 22"><g fill="none">
<path d="M11 -1.90735e-06C4.92488 -1.90735e-06 0 4.92488 0 11C0 15.6601 2.8994 19.6439 6.99129 21.2466C6.89517 20.3763 6.80825 19.0378 7.02943 18.0877C7.22934 17.2292 8.31931 12.62 8.31931 12.62C8.31931 12.62 7.99028 11.9611 7.99028 10.9869C7.99028 9.45733 8.87682 8.31543 9.98068 8.31543C10.9192 8.31543 11.3724 9.02001 11.3724 9.8649C11.3724 10.8087 10.7716 12.2198 10.4615 13.5274C10.2023 14.6222 11.0105 15.5151 12.0904 15.5151C14.0454 15.5151 15.5483 13.4536 15.5483 10.478C15.5483 7.8442 13.6558 6.00276 10.9535 6.00276C7.82365 6.00276 5.98653 8.35032 5.98653 10.7764C5.98653 11.7219 6.35073 12.7356 6.80518 13.2867C6.89508 13.3957 6.90824 13.4911 6.88146 13.6022C6.79797 13.9497 6.6124 14.6968 6.57597 14.8497C6.528 15.0511 6.41655 15.0938 6.20808 14.9968C4.83426 14.3573 3.9753 12.3487 3.9753 10.7354C3.9753 7.26549 6.49644 4.07882 11.2434 4.07882C15.0593 4.07882 18.0247 6.79797 18.0247 10.4319C18.0247 14.2229 15.6344 17.2739 12.3167 17.2739C11.202 17.2739 10.1542 16.6948 9.79547 16.0108C9.79547 16.0108 9.2439 18.111 9.11018 18.6257C8.86186 19.5811 8.19145 20.7787 7.74303 21.5094C8.77223 21.828 9.86598 21.9999 11 21.9999C17.0751 21.9999 22 17.075 22 11C22 4.92488 17.0751 -1.90735e-06 11 -1.90735e-06Z" fill="#BDBDBD"/>
</g></symbol><symbol id="logo-vk" viewBox="0 0 20 20"><g fill="none">
<path fill-rule="evenodd" clip-rule="evenodd" d="M1.40589 1.40589C0 2.81177 0 5.0745 0 9.6V10.4C0 14.9255 0 17.1882 1.40589 18.5941C2.81177 20 5.0745 20 9.6 20H10.4C14.9255 20 17.1882 20 18.5941 18.5941C20 17.1882 20 14.9255 20 10.4V9.6C20 5.0745 20 2.81177 18.5941 1.40589C17.1882 0 14.9255 0 10.4 0H9.6C5.0745 0 2.81177 0 1.40589 1.40589ZM3.37505 6.08337C3.48338 11.2834 6.08337 14.4084 10.6417 14.4084H10.9001V11.4334C12.5751 11.6 13.8417 12.825 14.35 14.4084H16.7167C16.0667 12.0417 14.3583 10.7334 13.2916 10.2334C14.3583 9.61671 15.8583 8.11671 16.2166 6.08337H14.0666C13.5999 7.73337 12.2168 9.23337 10.9001 9.37504V6.08337H8.75V11.85C7.41667 11.5167 5.73338 9.90004 5.65837 6.08337H3.37505Z" fill="#BDBDBD"/>
</g></symbol><symbol id="logotype-desktop" viewBox="0 0 170 36"><g fill="none">
<path d="M140.08 26.336C138.752 26.336 137.52 26.128 136.384 25.712C135.248 25.28 134.264 24.672 133.432 23.888C132.616 23.104 131.976 22.184 131.512 21.128C131.048 20.056 130.816 18.88 130.816 17.6C130.816 16.32 131.048 15.152 131.512 14.096C131.976 13.024 132.624 12.096 133.456 11.312C134.288 10.528 135.272 9.928 136.408 9.512C137.56 9.08 138.816 8.864 140.176 8.864C141.76 8.864 143.176 9.128 144.424 9.656C145.672 10.184 146.704 10.944 147.52 11.936L144.496 14.672C143.92 14.048 143.296 13.584 142.624 13.28C141.968 12.96 141.232 12.8 140.416 12.8C139.696 12.8 139.04 12.912 138.448 13.136C137.856 13.36 137.352 13.688 136.936 14.12C136.52 14.536 136.192 15.04 135.952 15.632C135.728 16.208 135.616 16.864 135.616 17.6C135.616 18.304 135.728 18.952 135.952 19.544C136.192 20.136 136.52 20.648 136.936 21.08C137.352 21.496 137.848 21.824 138.424 22.064C139.016 22.288 139.664 22.4 140.368 22.4C141.072 22.4 141.76 22.288 142.432 22.064C143.104 21.824 143.784 21.424 144.472 20.864L147.136 24.2C146.176 24.888 145.064 25.416 143.8 25.784C142.536 26.152 141.296 26.336 140.08 26.336ZM142.936 23.576V17.24H147.136V24.2L142.936 23.576ZM159.101 26.336C157.757 26.336 156.517 26.12 155.381 25.688C154.245 25.256 153.253 24.648 152.405 23.864C151.573 23.064 150.925 22.136 150.461 21.08C149.997 20.024 149.765 18.864 149.765 17.6C149.765 16.336 149.997 15.176 150.461 14.12C150.925 13.064 151.573 12.144 152.405 11.36C153.253 10.56 154.245 9.944 155.381 9.512C156.517 9.08 157.757 8.864 159.101 8.864C160.461 8.864 161.701 9.08 162.821 9.512C163.957 9.944 164.941 10.56 165.773 11.36C166.605 12.144 167.253 13.064 167.717 14.12C168.197 15.176 168.437 16.336 168.437 17.6C168.437 18.864 168.197 20.032 167.717 21.104C167.253 22.16 166.605 23.08 165.773 23.864C164.941 24.648 163.957 25.256 162.821 25.688C161.701 26.12 160.461 26.336 159.101 26.336ZM159.101 22.4C159.741 22.4 160.333 22.288 160.877 22.064C161.437 21.84 161.917 21.52 162.317 21.104C162.733 20.672 163.053 20.16 163.277 19.568C163.517 18.976 163.637 18.32 163.637 17.6C163.637 16.864 163.517 16.208 163.277 15.632C163.053 15.04 162.733 14.536 162.317 14.12C161.917 13.688 161.437 13.36 160.877 13.136C160.333 12.912 159.741 12.8 159.101 12.8C158.461 12.8 157.861 12.912 157.301 13.136C156.757 13.36 156.277 13.688 155.861 14.12C155.461 14.536 155.141 15.04 154.901 15.632C154.677 16.208 154.565 16.864 154.565 17.6C154.565 18.32 154.677 18.976 154.901 19.568C155.141 20.16 155.461 20.672 155.861 21.104C156.277 21.52 156.757 21.84 157.301 22.064C157.861 22.288 158.461 22.4 159.101 22.4Z" fill="#333333"/>
<path fill-rule="evenodd" clip-rule="evenodd" d="M124 18C124 20.8737 123.401 23.5901 122.337 26H109C111.463 22.2281 114 17.6606 114 13C114 7.00236 109.938 1.95335 104.416 0.453392C105.568 0.156712 106.768 0 108 0C116.837 0 124 8.05888 124 18ZM110 13C110 8.02944 105.971 4 101 4C94.3493 4 92 12.5071 92 18C92 27.9411 99.1634 36 108 36C112.739 36 116.996 33.6825 119.926 30H101C101.352 29.5514 101.72 29.0891 102.099 28.6142C105.616 24.2012 110 18.6997 110 13Z" fill="#7859CF"/>
<path d="M2.65063 26V9.2H10.5946C12.4506 9.2 14.0826 9.544 15.4906 10.232C16.8986 10.92 17.9946 11.888 18.7786 13.136C19.5786 14.384 19.9786 15.872 19.9786 17.6C19.9786 19.312 19.5786 20.8 18.7786 22.064C17.9946 23.312 16.8986 24.28 15.4906 24.968C14.0826 25.656 12.4506 26 10.5946 26H2.65063ZM7.40263 22.208H10.4026C11.3626 22.208 12.1946 22.032 12.8986 21.68C13.6186 21.312 14.1786 20.784 14.5786 20.096C14.9786 19.392 15.1786 18.56 15.1786 17.6C15.1786 16.624 14.9786 15.792 14.5786 15.104C14.1786 14.416 13.6186 13.896 12.8986 13.544C12.1946 13.176 11.3626 12.992 10.4026 12.992H7.40263V22.208ZM22.9588 26V9.2H30.6388C32.1748 9.2 33.4948 9.448 34.5988 9.944C35.7188 10.44 36.5828 11.16 37.1908 12.104C37.7988 13.032 38.1028 14.136 38.1028 15.416C38.1028 16.68 37.7988 17.776 37.1908 18.704C36.5828 19.616 35.7188 20.32 34.5988 20.816C33.4948 21.296 32.1748 21.536 30.6388 21.536H25.5988L27.7108 19.544V26H22.9588ZM33.3508 26L29.1748 19.88H34.2388L38.4388 26H33.3508ZM27.7108 20.048L25.5988 17.864H30.3508C31.3428 17.864 32.0788 17.648 32.5588 17.216C33.0548 16.784 33.3028 16.184 33.3028 15.416C33.3028 14.632 33.0548 14.024 32.5588 13.592C32.0788 13.16 31.3428 12.944 30.3508 12.944H25.5988L27.7108 10.76V20.048ZM41.2044 26V9.2H45.9564V26H41.2044ZM49.8172 26V9.2H53.7292L62.9932 20.384H61.1452V9.2H65.8012V26H61.8892L52.6252 14.816H54.4732V26H49.8172ZM73.8811 22.28L73.6171 16.952L80.8411 9.2H86.0731L78.8731 17L76.2331 19.76L73.8811 22.28ZM69.6331 26V9.2H74.3371V26H69.6331ZM80.9131 26L75.4411 19.064L78.5371 15.752L86.4331 26H80.9131Z" fill="#333333"/>
</g></symbol></svg>